ply
format ascii 1.0
comment Created in Blender version 4.0.2
element vertex 65
property float x
property float y
property float z
property float nx
property float ny
property float nz
property float s
property float t
element face 62
property list uchar uint vertex_indices
end_header
9.733476 -6.6468163 9.499284 0.03706801 -0.009421009 0.05859831 0.25 0.49
-43.51217 36.654957 18.218977 -0.020897144 0.018718857 0.008802872 0.25 0.25
8.193105 -8.547699 9.884728 0.02872983 -0.019710686 0.060684748 0.29682168 0.48538846
6.523439 -10.375532 9.807899 0.019691745 -0.029604942 0.06026887 0.34184402 0.47173107
4.7886405 -12.060072 9.271748 0.010301092 -0.038723536 0.05736663 0.38333684 0.4495527
3.055377 -13.536583 8.296878 0.0009187367 -0.046716064 0.052089565 0.41970563 0.41970563
1.390256 -14.748325 6.9207544 -0.008094696 -0.05327532 0.044640474 0.4495527 0.38333684
-0.14273179 -15.648731 5.1962595 -0.01639292 -0.05814932 0.035305597 0.47173107 0.34184402
-1.484675 -16.203197 3.189665 -0.023656989 -0.0611507 0.024443714 0.48538846 0.29682168
-2.5840025 -16.390419 0.9780843 -0.029607782 -0.06216415 0.012472209 0.49 0.25
-3.39847 -16.203197 -1.3534937 -0.03401655 -0.0611507 -0.00014886959 0.48538846 0.20317832
-3.8967752 -15.648731 -3.7154677 -0.036713902 -0.0581493 -0.012934491 0.47173107 0.15815598
-4.0597706 -14.748325 -6.017068 -0.037596248 -0.053275324 -0.025393274 0.4495527 0.11666314
-3.8811913 -13.536583 -8.169846 -0.036629595 -0.046716068 -0.037046444 0.41970563 0.080294386
-3.3679 -12.060072 -10.091071 -0.033851072 -0.038723536 -0.047446262 0.38333684 0.0504473
-2.5396237 -10.375532 -11.706911 -0.029367534 -0.029604957 -0.05619297 0.34184402 0.028268918
-1.4281908 -8.547699 -12.955273 -0.023351217 -0.019710692 -0.06295048 0.29682168 0.014611542
-0.076313615 -6.6468163 -13.78818 -0.016033368 -0.009421011 -0.0674591 0.25 0.010000005
1.4640561 -4.7459335 -14.173625 -0.0076951785 0.0008686604 -0.06954555 0.20317832 0.014611542
3.1337223 -2.9181006 -14.096795 0.0013428964 0.010762911 -0.06912966 0.15815598 0.028268918
4.868521 -1.2335601 -13.560644 0.010733534 0.01988151 -0.06622743 0.11666314 0.0504473
6.6017857 0.24295187 -12.585774 0.020115891 0.027874045 -0.060950343 0.080294386 0.080294386
8.266906 1.4546938 -11.209651 0.029129332 0.034433305 -0.053501263 0.0504473 0.11666314
9.799893 2.3550992 -9.485157 0.037427545 0.03930726 -0.044166412 0.028268918 0.15815598
11.141837 2.9095664 -7.4785624 0.04469163 0.042308677 -0.03330451 0.014611542 0.20317832
12.241164 3.096787 -5.266982 0.05064241 0.04332214 -0.021332994 0.010000005 0.25
13.055631 2.9095664 -2.935404 0.055051196 0.042308684 -0.008711925 0.014611542 0.29682168
13.553937 2.3550992 -0.57342935 0.05774858 0.039307293 0.0040736743 0.028268918 0.34184402
13.716932 1.4546938 1.7281711 0.058630884 0.034433313 0.016532484 0.0504473 0.38333684
13.538354 0.24295187 3.8809488 0.057664216 0.027874053 0.028185654 0.080294386 0.41970563
13.025062 -1.2335601 5.8021746 0.054885715 0.019881506 0.038585477 0.11666314 0.4495527
12.196785 -2.9181006 7.4180155 0.050402172 0.010762931 0.047332175 0.15815598 0.47173107
-1.4281908 -8.547699 -12.955273 -0.023351217 -0.019710692 -0.06295048 0.79682165 0.014611542
11.141837 2.9095664 -7.4785624 0.04469163 0.042308677 -0.03330451 0.51461154 0.20317832
11.085352 -4.7459335 8.666376 0.04438586 0.0008686604 0.05408968 0.70317835 0.48538846
11.085352 -4.7459335 8.666376 0.04438586 0.0008686604 0.05408968 0.20317832 0.48538846
9.733476 -6.6468163 9.499284 0.03706801 -0.009421009 0.05859831 0.75 0.49
8.193105 -8.547699 9.884728 0.02872983 -0.019710686 0.060684748 0.79682165 0.48538846
6.523439 -10.375532 9.807899 0.019691745 -0.029604942 0.06026887 0.841844 0.47173107
4.7886405 -12.060072 9.271748 0.010301092 -0.038723536 0.05736663 0.88333684 0.4495527
3.055377 -13.536583 8.296878 0.0009187367 -0.046716064 0.052089565 0.9197056 0.41970563
1.390256 -14.748325 6.9207544 -0.008094696 -0.05327532 0.044640474 0.9495527 0.38333684
-0.14273179 -15.648731 5.1962595 -0.01639292 -0.05814932 0.035305597 0.97173107 0.34184402
-1.484675 -16.203197 3.189665 -0.023656989 -0.0611507 0.024443714 0.98538846 0.29682168
-2.5840025 -16.390419 0.9780843 -0.029607782 -0.06216415 0.012472209 0.99 0.25
-3.39847 -16.203197 -1.3534937 -0.03401655 -0.0611507 -0.00014886959 0.98538846 0.20317832
-3.8967752 -15.648731 -3.7154677 -0.036713902 -0.0581493 -0.012934491 0.97173107 0.15815598
-4.0597706 -14.748325 -6.017068 -0.037596248 -0.053275324 -0.025393274 0.9495527 0.11666314
-3.8811913 -13.536583 -8.169846 -0.036629595 -0.046716068 -0.037046444 0.9197056 0.080294386
-3.3679 -12.060072 -10.091071 -0.033851072 -0.038723536 -0.047446262 0.88333684 0.0504473
-2.5396237 -10.375532 -11.706911 -0.029367534 -0.029604957 -0.05619297 0.841844 0.028268918
-0.076313615 -6.6468163 -13.78818 -0.016033368 -0.009421011 -0.0674591 0.75 0.010000005
1.4640561 -4.7459335 -14.173625 -0.0076951785 0.0008686604 -0.06954555 0.70317835 0.014611542
3.1337223 -2.9181006 -14.096795 0.0013428964 0.010762911 -0.06912966 0.658156 0.028268918
4.868521 -1.2335601 -13.560644 0.010733534 0.01988151 -0.06622743 0.61666316 0.0504473
6.6017857 0.24295187 -12.585774 0.020115891 0.027874045 -0.060950343 0.5802944 0.080294386
8.266906 1.4546938 -11.209651 0.029129332 0.034433305 -0.053501263 0.5504473 0.11666314
9.799893 2.3550992 -9.485157 0.037427545 0.03930726 -0.044166412 0.52826893 0.15815598
12.241164 3.096787 -5.266982 0.05064241 0.04332214 -0.021332994 0.51 0.25
13.055631 2.9095664 -2.935404 0.055051196 0.042308684 -0.008711925 0.51461154 0.29682168
13.553937 2.3550992 -0.57342935 0.05774858 0.039307293 0.0040736743 0.52826893 0.34184402
13.716932 1.4546938 1.7281711 0.058630884 0.034433313 0.016532484 0.5504473 0.38333684
13.538354 0.24295187 3.8809488 0.057664216 0.027874053 0.028185654 0.5802944 0.41970563
13.025062 -1.2335601 5.8021746 0.054885715 0.019881506 0.038585477 0.61666316 0.4495527
12.196785 -2.9181006 7.4180155 0.050402172 0.010762931 0.047332175 0.658156 0.47173107
3 0 1 2
3 2 1 3
3 3 1 4
3 4 1 5
3 5 1 6
3 6 1 7
3 7 1 8
3 8 1 9
3 9 1 10
3 10 1 11
3 11 1 12
3 12 1 13
3 13 1 14
3 14 1 15
3 15 1 16
3 16 1 17
3 17 1 18
3 18 1 19
3 19 1 20
3 20 1 21
3 21 1 22
3 22 1 23
3 23 1 24
3 24 1 25
3 25 1 26
3 26 1 27
3 27 1 28
3 28 1 29
3 29 1 30
3 30 1 31
3 32 33 34
3 31 1 35
3 35 1 0
3 34 36 37
3 37 38 39
3 39 40 41
3 41 42 43
3 43 44 45
3 45 46 47
3 47 48 49
3 49 50 32
3 32 51 52
3 52 53 54
3 54 55 56
3 56 57 33
3 33 58 59
3 59 60 61
3 61 62 63
3 63 64 34
3 34 37 39
3 39 41 43
3 43 45 47
3 47 49 32
3 32 52 54
3 54 56 33
3 33 59 61
3 61 63 34
3 34 39 43
3 43 47 32
3 32 54 33
3 33 61 34
3 34 43 32
